<svg width="14" height="14" viewBox="0 0 14 14" fill="none" xmlns="http://www.w3.org/2000/svg">
<path d="M6.74113 3.28833C4.83839 3.28833 3.26184 4.81953 3.26184 6.7268C3.26184 8.63409 4.81121 10.1653 6.74113 10.1653C8.67105 10.1653 10.2205 8.60724 10.2205 6.7268C10.2205 4.84639 8.64387 3.28833 6.74113 3.28833ZM6.74113 8.92957C5.51794 8.92957 4.51221 7.93564 4.51221 6.7268C4.51221 5.51796 5.51794 4.52403 6.74113 4.52403C7.96432 4.52403 8.97005 5.51796 8.97005 6.7268C8.97005 7.93564 7.96432 8.92957 6.74113 8.92957Z" fill="white"/>
<path d="M10.3564 3.98665C10.7917 3.98665 11.1446 3.63787 11.1446 3.20762C11.1446 2.77738 10.7917 2.42859 10.3564 2.42859C9.92096 2.42859 9.56807 2.77738 9.56807 3.20762C9.56807 3.63787 9.92096 3.98665 10.3564 3.98665Z" fill="white"/>
<path d="M12.3949 1.19282C11.6882 0.467514 10.6825 0.0914307 9.54091 0.0914307H3.94138C1.57655 0.0914307 0 1.64949 0 3.98657V9.49351C0 10.6486 0.380547 11.6425 1.14164 12.3679C1.87555 13.0663 2.85411 13.4155 3.96857 13.4155H9.51365C10.6825 13.4155 11.6611 13.0395 12.3678 12.3679C13.1017 11.6694 13.4823 10.6754 13.4823 9.52036V3.98657C13.4823 2.85833 13.1017 1.89126 12.3949 1.19282ZM12.2862 9.52036C12.2862 10.3531 11.9873 11.0247 11.498 11.4813C11.0087 11.9381 10.3291 12.1798 9.51365 12.1798H3.96857C3.15311 12.1798 2.47356 11.9381 1.98429 11.4813C1.495 10.9979 1.25037 10.3263 1.25037 9.49351V3.98657C1.25037 3.18068 1.495 2.5091 1.98429 2.02557C2.44638 1.5689 3.15311 1.32713 3.96857 1.32713H9.56807C10.3835 1.32713 11.0631 1.5689 11.5523 2.05243C12.0144 2.53597 12.2862 3.20755 12.2862 3.98657V9.52036Z" fill="white"/>
</svg>
