<svg width="14" height="14" viewBox="0 0 14 14" fill="none" xmlns="http://www.w3.org/2000/svg">
<g clip-path="url(#clip0_6_31)">
<path d="M7.00219 13.8312C3.23313 13.8312 0.16626 10.7643 0.16626 6.99524C0.16626 3.22618 3.23313 0.159302 7.00219 0.159302C10.7713 0.159302 13.8381 3.22618 13.8381 6.99524C13.8381 10.7643 10.7713 13.8312 7.00219 13.8312Z" fill="white"/>
<path d="M7.00219 0.323364C10.6811 0.323364 13.6741 3.3163 13.6741 6.99524C13.6741 10.6742 10.6811 13.6671 7.00219 13.6671C3.32326 13.6671 0.330322 10.6742 0.330322 6.99524C0.330322 3.3163 3.32326 0.323364 7.00219 0.323364ZM7.00219 -0.00476074C3.13601 -0.00476074 0.00219727 3.12905 0.00219727 6.99524C0.00219727 10.861 3.13601 13.9952 7.00219 13.9952C10.8684 13.9952 14.0022 10.861 14.0022 6.99524C14.0022 3.12949 10.8684 -0.00476074 7.00219 -0.00476074Z" fill="white"/>
<path d="M10.6308 10.0328V7.34785C10.6308 5.90935 9.86301 5.23997 8.83882 5.23997C8.01238 5.23997 7.64226 5.69453 7.4362 6.01347V5.34978H5.87957C5.90014 5.78947 5.87957 10.0328 5.87957 10.0328H7.4362V7.41741C7.4362 7.27785 7.44626 7.13785 7.48739 7.0381C7.59982 6.75853 7.85576 6.46891 8.28582 6.46891C8.84932 6.46891 9.07464 6.8981 9.07464 7.52766V10.0332L10.6308 10.0328ZM4.23939 4.7106C4.78189 4.7106 5.12007 4.35053 5.12007 3.90122C5.11001 3.44185 4.78189 3.09229 4.24945 3.09229C3.71701 3.09229 3.3692 3.44141 3.3692 3.90079C3.3692 4.35054 3.70695 4.71016 4.22976 4.71016H4.23939V4.7106ZM5.0177 10.0328V5.34978H3.46151V10.0328H5.0177Z" fill="#2D2D2D"/>
</g>
<defs>
<clipPath id="clip0_6_31">
<rect width="14" height="14" fill="white"/>
</clipPath>
</defs>
</svg>
